<?xml version="1.0" encoding="UTF-8"?>
<!DOCTYPE svg PUBLIC "-//W3C//DTD SVG 1.1//EN" "http://www.w3.org/Graphics/SVG/1.1/DTD/svg11.dtd">
<!-- Creator: CorelDRAW X6 -->
<svg xmlns="http://www.w3.org/2000/svg" xml:space="preserve" width="187.327mm" height="49.6366mm" version="1.1" style="shape-rendering:geometricPrecision; text-rendering:geometricPrecision; image-rendering:optimizeQuality; fill-rule:evenodd; clip-rule:evenodd"
viewBox="0 0 18994 5033"
 xmlns:xlink="http://www.w3.org/1999/xlink">
 <defs>
  <style type="text/css">
   <![CDATA[
    .fil1 {fill:#8C2137}
    .fil3 {fill:#FEFEFE}
    .fil0 {fill:#2B2A29;fill-rule:nonzero}
    .fil4 {fill:url(#id0)}
    .fil2 {fill:url(#id1)}
   ]]>
  </style>
  <linearGradient id="id0" gradientUnits="userSpaceOnUse" x1="3793.8" y1="2724.37" x2="6379.42" y2="2724.37">
   <stop offset="0" style="stop-color:#8C2137"/>
   <stop offset="1" style="stop-color:#E31E24"/>
  </linearGradient>
  <linearGradient id="id1" gradientUnits="userSpaceOnUse" xlink:href="#id0" x1="1169.94" y1="2520.3" x2="3916.76" y2="2520.3">
  </linearGradient>
 </defs>
 <g id="Слой_x0020_1">
  <metadata id="CorelCorpID_0Corel-Layer"/>
  <path class="fil0" d="M10741 275l0 -259 -1217 0 0 1903 289 0 0 -804 791 0 0 -260 -791 0 0 -580 928 0zm662 1644l0 -1903 -288 0 0 1903 288 0zm1957 0l0 -1903 -289 0 0 1336 -879 -1336 -265 0 0 1903 289 0 0 -1339 879 1339 265 0zm1818 -569l-289 0c-46,195 -179,329 -390,329 -115,0 -212,-43 -281,-118 -96,-102 -115,-217 -115,-593 0,-377 19,-492 115,-594 69,-75 166,-117 281,-117 211,0 342,133 384,328l295 0c-67,-377 -329,-585 -679,-585 -209,0 -369,70 -492,192 -185,188 -193,377 -193,776 0,398 8,588 193,775 123,123 283,192 492,192 347,0 612,-208 679,-585zm1683 -382c0,-399 -5,-588 -192,-776 -123,-122 -283,-192 -492,-192 -208,0 -369,70 -492,192 -187,188 -192,377 -192,776 0,398 5,588 192,775 123,123 284,192 492,192 209,0 369,-69 492,-192 187,-187 192,-377 192,-775zm-288 0c0,376 -16,491 -113,590 -72,75 -168,121 -283,121 -115,0 -211,-46 -283,-121 -94,-101 -113,-214 -113,-590 0,-377 19,-492 113,-594 72,-75 168,-117 283,-117 115,0 211,42 283,117 97,99 113,217 113,594zm2421 951l0 -1903 -288 0 -546 1184 -556 -1184 -288 0 0 1903 288 0 0 -1272 449 927 214 0 439 -927 0 1272 288 0zm-8159 2349l0 -292 -695 0 0 246 407 0 0 107c0,123 -25,219 -94,300 -75,87 -187,136 -313,136 -115,0 -212,-42 -283,-118 -94,-100 -112,-216 -112,-593 0,-377 18,-493 112,-593 71,-76 168,-118 283,-118 214,0 353,123 401,331l289 0c-51,-323 -289,-588 -690,-588 -208,0 -369,69 -492,193 -184,186 -192,377 -192,775 0,398 8,589 192,775 123,123 284,193 492,193 201,0 384,-66 524,-217 127,-135 171,-289 171,-537zm1839 737l-438 -841c214,-59 379,-233 379,-506 0,-323 -230,-556 -590,-556l-738 0 0 1903 289 0 0 -801 360 0 401 801 337 0zm-347 -1344c0,187 -131,297 -324,297l-427 0 0 -596 427 0c193,0 324,112 324,299zm2010 393c0,-398 -6,-588 -193,-775 -123,-123 -283,-193 -492,-193 -208,0 -368,70 -491,193 -187,187 -193,377 -193,775 0,398 6,588 193,775 123,123 283,193 491,193 209,0 369,-70 492,-193 187,-187 193,-377 193,-775zm-289 0c0,377 -16,492 -112,591 -73,74 -169,120 -284,120 -114,0 -212,-45 -283,-120 -94,-101 -112,-214 -112,-591 0,-377 18,-493 112,-593 71,-76 169,-118 283,-118 115,0 211,43 284,118 96,99 112,216 112,593zm2079 310l0 -1262 -288 0 0 1249c0,253 -158,411 -396,411 -238,0 -393,-157 -393,-411l0 -1249 -288 0 0 1262c0,393 294,658 681,658 388,0 684,-265 684,-658zm1826 -684c0,-332 -238,-578 -609,-578l-722 0 0 1903 289 0 0 -751 433 0c371,0 609,-243 609,-574zm-289 0c0,200 -133,318 -337,318l-416 0 0 -636 416 0c204,0 337,115 337,318z"/>
  <polygon class="fil1" points="5352,5033 0,5033 0,8 3518,8 5349,1838 5349,3443 "/>
  <polygon class="fil2" points="0,8 0,5033 5087,5033 27,8 "/>
  <polygon class="fil3" points="1285,1201 1285,2233 2864,2233 2864,2877 1285,2877 1285,4483 583,4483 583,558 3107,558 3107,1201 "/>
  <path class="fil1" d="M5291 8c1387,0 2512,1125 2512,2512 0,1388 -1125,2513 -2512,2513 -1388,0 -2513,-1125 -2513,-2513 0,-1387 1125,-2512 2513,-2512z"/>
  <path class="fil4" d="M7395 3893c-448,686 -1223,1140 -2104,1140 -1388,0 -2513,-1125 -2513,-2513 0,-881 453,-1656 1140,-2104l3477 3477z"/>
  <path class="fil3" d="M5432 526c-1101,0 -1994,893 -1994,1994 0,1102 893,1995 1994,1995 523,0 999,-202 1355,-531l-490 -490c-230,205 -533,329 -865,329 -719,0 -1302,-583 -1302,-1303 0,-719 583,-1302 1302,-1302 332,0 635,124 865,328l490 -489c-356,-330 -832,-531 -1355,-531z"/>
 </g>
</svg>
