<?xml version="1.0" encoding="UTF-8"?>
<!DOCTYPE svg PUBLIC "-//W3C//DTD SVG 1.1//EN" "http://www.w3.org/Graphics/SVG/1.1/DTD/svg11.dtd">
<!-- Creator: CorelDRAW X6 -->
<svg xmlns="http://www.w3.org/2000/svg" xml:space="preserve" width="63.3126mm" height="74.041mm" version="1.1" style="shape-rendering:geometricPrecision; text-rendering:geometricPrecision; image-rendering:optimizeQuality; fill-rule:evenodd; clip-rule:evenodd"
viewBox="0 0 346 405"
 xmlns:xlink="http://www.w3.org/1999/xlink">
 <defs>
  <style type="text/css">
   <![CDATA[
    .fil0 {fill:#8C2137}
   ]]>
  </style>
 </defs>
 <g id="Слой_x0020_1">
  <metadata id="CorelCorpID_0Corel-Layer"/>
  <path class="fil0" d="M243 292c0,9 3,10 9,18l10 14c2,3 3,5 5,7 2,3 3,5 5,8 1,1 2,2 3,3 1,1 1,2 2,3l36 50c6,8 9,10 18,10 4,0 9,-3 11,-5 3,-4 4,-7 4,-11l0 -1c0,-3 -1,-7 -3,-10l-7 -9c-10,-13 -20,-28 -30,-42l-30 -41c-5,-6 -9,-11 -19,-10 -7,2 -14,9 -14,16zm-243 -152c0,23 5,42 12,58 8,19 22,35 37,49 6,5 17,13 23,16l9 4c8,4 18,7 26,9 24,7 49,6 73,-1 8,-2 18,-6 25,-10 1,0 2,-1 2,-1 1,-1 2,-1 3,-2 8,-5 14,-8 21,-14l19 -20c3,-4 7,-8 9,-13 1,-2 3,-3 4,-5 11,-22 18,-42 18,-71 0,-15 -3,-30 -7,-44 -1,-2 -2,-4 -3,-6 -4,-11 -8,-18 -15,-28 -3,-6 -7,-10 -11,-14 -1,-1 -1,-2 -2,-3 -1,-1 -1,-1 -2,-2l-9 -8c-8,-7 -11,-9 -20,-15l-11 -6c-10,-4 -13,-6 -25,-9 -10,-2 -21,-4 -31,-4l-10 0c-20,1 -40,6 -58,15 -6,3 -14,8 -19,11 -6,5 -16,13 -21,19l-3 4c-4,5 -6,6 -10,12 -15,23 -24,49 -24,79zm29 0c0,18 5,33 10,45 6,15 17,29 29,39 5,4 13,10 18,13l7 3c6,3 14,6 21,7 19,5 39,5 57,-1 6,-2 14,-5 20,-8 1,0 1,0 2,-1 1,0 1,0 2,-1 6,-4 11,-7 16,-11l16 -16c2,-3 5,-6 7,-10 1,-1 2,-3 2,-4 10,-17 15,-33 15,-56 0,-12 -2,-24 -6,-34 0,-2 -1,-4 -2,-5 -3,-9 -6,-15 -11,-23 -3,-4 -6,-7 -9,-11 -1,-1 -1,-1 -2,-2 0,0 -1,-1 -2,-1l-7 -7c-6,-5 -8,-7 -15,-11l-9 -5c-8,-3 -10,-5 -20,-7 -8,-2 -16,-3 -24,-4l-8 0c-16,1 -32,5 -46,12 -5,3 -11,6 -15,9 -4,4 -12,10 -16,15l-3 3c-3,4 -4,5 -8,10 -11,17 -19,38 -19,62z"/>
 </g>
</svg>
