<?xml version="1.0" encoding="UTF-8"?>
<!DOCTYPE svg PUBLIC "-//W3C//DTD SVG 1.1//EN" "http://www.w3.org/Graphics/SVG/1.1/DTD/svg11.dtd">
<!-- Creator: CorelDRAW X6 -->
<svg xmlns="http://www.w3.org/2000/svg" xml:space="preserve" width="14.2093mm" height="12.7752mm" version="1.1" style="shape-rendering:geometricPrecision; text-rendering:geometricPrecision; image-rendering:optimizeQuality; fill-rule:evenodd; clip-rule:evenodd"
viewBox="0 0 76 68"
 xmlns:xlink="http://www.w3.org/1999/xlink">
 <defs>
  <style type="text/css">
   <![CDATA[
    .fil0 {fill:#4A72CE}
   ]]>
  </style>
 </defs>
 <g id="Слой_x0020_1">
  <metadata id="CorelCorpID_0Corel-Layer"/>
  <path class="fil0" d="M6 21l-1 -1c-4,-9 2,-9 4,-10 1,0 1,-1 1,-1 3,-1 0,-3 0,-3 -4,0 -15,4 -7,17 2,4 2,2 1,7 -4,35 41,53 62,24 2,-3 3,-4 4,-7 6,11 -1,11 -3,12 -12,5 18,6 6,-13 -2,-5 -1,-3 -1,-8 4,-35 -42,-52 -62,-24 -2,3 -2,4 -4,7zm20 21c0,0 3,-3 3,-3 0,0 5,10 5,10 0,0 -12,0 -12,0l2 -4c0,0 -11,-8 -16,-15 -3,11 4,23 9,27 18,15 41,8 50,-11 1,-4 0,-4 -2,-6 -7,-8 -15,-14 -15,-14 0,0 -3,4 -3,4 0,0 -5,-11 -5,-11l13 -1c0,0 -3,5 -3,5 1,1 16,15 17,15 0,-6 0,-10 -3,-16 -2,-5 -4,-8 -8,-11 -15,-13 -39,-9 -48,12 -3,5 12,16 16,19zm12 -30l0 20 0 0c0,0 0,0 0,0l-3 0 0 0c0,0 -1,0 -1,0l0 -9 -2 0c0,0 -1,0 -1,0l0 0c0,0 0,0 0,0l0 0c-1,1 -1,1 -1,1l0 0 0 0c0,0 0,0 -1,0l0 0c0,0 0,0 0,0 0,1 -1,1 -1,1l0 0c0,0 0,1 -1,1 0,1 0,1 -1,2l0 0 -2 4c0,0 -1,0 -1,0l-3 0 0 0c0,0 0,0 0,0 -1,0 -1,0 -1,-1l4 -5 0 0 0 0c0,-1 1,-1 1,-2 0,0 1,0 1,-1l0 0 0 0c0,0 1,0 1,0 -1,0 -1,0 -2,-1 0,0 -1,0 -1,-1 -1,0 -1,-1 -2,-2 0,0 0,-1 0,-2 0,0 0,-1 0,-2 0,0 1,-1 1,-1 0,-1 1,-1 1,-1 0,-1 1,-1 1,-1 1,0 2,-1 2,-1 1,0 2,0 3,0l9 0 0 0c0,0 0,0 0,1zm-2 45l0 0 0 -2c0,0 0,0 0,-1l11 -12 0 0c0,-1 0,-1 1,-2l0 0 -10 0c0,0 -1,0 -1,0l0 0 0 -3c0,0 1,0 1,0l0 0 14 0c1,0 1,0 1,0l0 0 0 3c0,0 0,0 0,0l-12 14 0 0 0 0 0 0 12 0c0,0 0,1 0,1l0 0 0 2c0,1 0,1 0,1l0 0 -16 0c-1,0 -1,0 -1,-1zm-7 -37l5 0 0 -6 -5 0c-1,0 -2,1 -2,1 -1,0 -1,0 -1,0 -1,0 -1,1 -1,1l0 0c0,0 0,1 0,1 0,0 0,1 0,1 0,0 0,0 0,1l0 0 0 0c0,0 1,0 1,0l0 0c0,0 0,1 1,1l0 0c0,0 0,0 1,0 0,0 1,0 1,0z"/>
 </g>
</svg>
