<?xml version="1.0" encoding="UTF-8"?>
<!DOCTYPE svg PUBLIC "-//W3C//DTD SVG 1.1//EN" "http://www.w3.org/Graphics/SVG/1.1/DTD/svg11.dtd">
<!-- Creator: CorelDRAW X6 -->
<svg xmlns="http://www.w3.org/2000/svg" xml:space="preserve" width="11.5308mm" height="13.4632mm" version="1.1" style="shape-rendering:geometricPrecision; text-rendering:geometricPrecision; image-rendering:optimizeQuality; fill-rule:evenodd; clip-rule:evenodd"
viewBox="0 0 41 48"
 xmlns:xlink="http://www.w3.org/1999/xlink">
 <defs>
  <style type="text/css">
   <![CDATA[
    .fil0 {fill:#406DC7}
   ]]>
  </style>
 </defs>
 <g id="Слой_x0020_1">
  <metadata id="CorelCorpID_0Corel-Layer"/>
  <g id="_732925896">
   <path class="fil0" d="M0 16c0,5 1,9 5,13 8,7 21,6 27,-5 3,-6 2,-11 -1,-16 -1,-1 -1,-2 -2,-3 -2,-2 -7,-5 -11,-5 -5,0 -7,0 -11,3 -2,1 -3,3 -4,4 -2,2 -3,6 -3,9zm17 -13c7,0 13,6 13,14 0,7 -6,13 -13,13 -8,0 -14,-6 -14,-13 0,-8 6,-14 14,-14z"/>
   <path class="fil0" d="M29 34c0,2 0,2 2,5l3 3c0,1 4,6 5,6 1,0 2,0 2,-1l0 -1c0,-1 -1,-3 -2,-4l-5 -6c0,-1 -2,-3 -3,-3 -1,0 -2,1 -2,1z"/>
  </g>
 </g>
</svg>
